<?xml version="1.0" standalone="no"?>
<!DOCTYPE svg PUBLIC "-//W3C//DTD SVG 20010904//EN"
 "http://www.w3.org/TR/2001/REC-SVG-20010904/DTD/svg10.dtd">
<svg version="1.0" xmlns="http://www.w3.org/2000/svg"
 width="92.000000pt" height="92.000000pt" viewBox="0 0 92.000000 92.000000"
 preserveAspectRatio="xMidYMid meet">
<metadata>
Created by potrace 1.14, written by Peter Selinger 2001-2017
</metadata>
<g transform="translate(0.000000,92.000000) scale(0.100000,-0.100000)"
fill="#000000" stroke="none">
<path d="M328 866 c-16 -8 -28 -13 -28 -10 0 2 -17 -4 -38 -15 -49 -25 -135
-102 -162 -146 -89 -144 -92 -328 -7 -461 53 -85 158 -166 247 -191 32 -9 208
-9 240 0 100 28 214 124 265 223 29 57 30 64 30 189 0 119 -2 135 -26 185 -26
57 -99 139 -157 179 -63 44 -129 61 -237 61 -67 0 -109 -5 -127 -14z"/>
</g>
</svg>
